<svg width="114" height="110" viewBox="0 0 114 110" fill="none" xmlns="http://www.w3.org/2000/svg">
<g filter="url(#filter0_d_652_14)">
<ellipse cx="59" cy="52" rx="49" ry="47" fill="#222222"/>
</g>
<g filter="url(#filter1_d_652_14)">
<ellipse cx="59" cy="52" rx="44" ry="42" fill="#222222"/>
<path d="M59 10.6719C82.9591 10.6719 102.328 29.2044 102.328 52C102.328 74.7956 82.9591 93.3281 59 93.3281C35.0409 93.3281 15.6719 74.7956 15.6719 52C15.6719 29.2044 35.0409 10.6719 59 10.6719Z" stroke="white" stroke-width="1.34445"/>
</g>
<path d="M47.4844 62H31.3067V59.1378L39.8622 50.9556C40.8163 50.043 41.4593 49.2652 41.7911 48.6222C42.123 47.9585 42.2889 47.2948 42.2889 46.6311C42.2889 45.677 41.957 44.9304 41.2933 44.3911C40.6504 43.8519 39.6963 43.5822 38.4311 43.5822C36.3363 43.5822 34.7185 44.3393 33.5778 45.8533L30.4044 43.7378C31.2548 42.5348 32.4059 41.5911 33.8578 40.9067C35.3096 40.2222 36.9689 39.88 38.8356 39.88C40.4119 39.88 41.7911 40.1393 42.9733 40.6578C44.1556 41.1556 45.0681 41.8815 45.7111 42.8356C46.3748 43.7896 46.7067 44.9096 46.7067 46.1956C46.7067 47.357 46.4578 48.4563 45.96 49.4933C45.4622 50.5304 44.5081 51.7126 43.0978 53.04L37.4978 58.3911H47.4844V62ZM67.0002 43.0844L58.6624 62H53.9024L61.9913 43.8311H53.8091V47.5022H49.8891V40.2222H67.0002V43.0844ZM72.0449 56.5778C71.393 56.5778 70.8123 56.4237 70.3027 56.1156C69.8049 55.8074 69.4138 55.3748 69.1293 54.8178C68.8449 54.2489 68.7027 53.5911 68.7027 52.8444C68.7027 52.0978 68.8449 51.4459 69.1293 50.8889C69.4138 50.32 69.8049 49.8815 70.3027 49.5733C70.8123 49.2652 71.393 49.1111 72.0449 49.1111C72.6849 49.1111 73.2538 49.2652 73.7516 49.5733C74.2612 49.8815 74.6582 50.32 74.9427 50.8889C75.2271 51.4459 75.3693 52.0978 75.3693 52.8444C75.3693 53.5911 75.2271 54.2489 74.9427 54.8178C74.6582 55.3748 74.2612 55.8074 73.7516 56.1156C73.2538 56.4237 72.6849 56.5778 72.0449 56.5778ZM82.2316 49.2533L73.3071 62.3022H70.6938L79.6182 49.2533H82.2316ZM72.0449 54.6578C72.4005 54.6578 72.679 54.5096 72.8805 54.2133C73.0819 53.9052 73.1827 53.4489 73.1827 52.8444C73.1827 52.24 73.0819 51.7896 72.8805 51.4933C72.679 51.1852 72.4005 51.0311 72.0449 51.0311C71.7012 51.0311 71.4227 51.1852 71.2093 51.4933C71.0079 51.8015 70.9071 52.2519 70.9071 52.8444C70.9071 53.437 71.0079 53.8874 71.2093 54.1956C71.4227 54.5037 71.7012 54.6578 72.0449 54.6578ZM80.8805 62.4267C80.2405 62.4267 79.6656 62.2726 79.156 61.9644C78.6582 61.6563 78.2671 61.2237 77.9827 60.6667C77.6982 60.0978 77.556 59.4459 77.556 58.7111C77.556 57.9763 77.6982 57.3244 77.9827 56.7556C78.2671 56.1867 78.6582 55.7481 79.156 55.44C79.6656 55.1319 80.2405 54.9778 80.8805 54.9778C81.5205 54.9778 82.0953 55.1319 82.6049 55.44C83.1145 55.7481 83.5116 56.1867 83.796 56.7556C84.0805 57.3244 84.2227 57.9763 84.2227 58.7111C84.2227 59.4459 84.0805 60.0978 83.796 60.6667C83.5116 61.2237 83.1145 61.6563 82.6049 61.9644C82.0953 62.2726 81.5205 62.4267 80.8805 62.4267ZM80.8805 60.5244C81.236 60.5244 81.5145 60.3704 81.716 60.0622C81.9175 59.7541 82.0182 59.3037 82.0182 58.7111C82.0182 58.1067 81.9175 57.6563 81.716 57.36C81.5145 57.0519 81.236 56.8978 80.8805 56.8978C80.5249 56.8978 80.2464 57.0519 80.0449 57.36C79.8434 57.6563 79.7427 58.1067 79.7427 58.7111C79.7427 59.3037 79.8434 59.7541 80.0449 60.0622C80.2582 60.3704 80.5367 60.5244 80.8805 60.5244Z" fill="white"/>
<defs>
<filter id="filter0_d_652_14" x="0.588823" y="0.966639" width="112.789" height="108.789" filterUnits="userSpaceOnUse" color-interpolation-filters="sRGB">
<feFlood flood-opacity="0" result="BackgroundImageFix"/>
<feColorMatrix in="SourceAlpha" type="matrix" values="0 0 0 0 0 0 0 0 0 0 0 0 0 0 0 0 0 0 127 0" result="hardAlpha"/>
<feOffset dx="-2.01668" dy="3.36113"/>
<feGaussianBlur stdDeviation="3.69725"/>
<feComposite in2="hardAlpha" operator="out"/>
<feColorMatrix type="matrix" values="0 0 0 0 0 0 0 0 0 0 0 0 0 0 0 0 0 0 0.25 0"/>
<feBlend mode="normal" in2="BackgroundImageFix" result="effect1_dropShadow_652_14"/>
<feBlend mode="normal" in="SourceGraphic" in2="effect1_dropShadow_652_14" result="shape"/>
</filter>
<filter id="filter1_d_652_14" x="14.3278" y="10" width="93.3778" height="89.3778" filterUnits="userSpaceOnUse" color-interpolation-filters="sRGB">
<feFlood flood-opacity="0" result="BackgroundImageFix"/>
<feColorMatrix in="SourceAlpha" type="matrix" values="0 0 0 0 0 0 0 0 0 0 0 0 0 0 0 0 0 0 127 0" result="hardAlpha"/>
<feOffset dx="2.01668" dy="2.68891"/>
<feGaussianBlur stdDeviation="1.34445"/>
<feComposite in2="hardAlpha" operator="out"/>
<feColorMatrix type="matrix" values="0 0 0 0 0 0 0 0 0 0 0 0 0 0 0 0 0 0 0.25 0"/>
<feBlend mode="normal" in2="BackgroundImageFix" result="effect1_dropShadow_652_14"/>
<feBlend mode="normal" in="SourceGraphic" in2="effect1_dropShadow_652_14" result="shape"/>
</filter>
</defs>
</svg>
