<svg width="114" height="110" viewBox="0 0 114 110" fill="none" xmlns="http://www.w3.org/2000/svg">
<g filter="url(#filter0_d_652_3)">
<ellipse cx="59" cy="52" rx="49" ry="47" fill="#EA5A0D"/>
</g>
<g filter="url(#filter1_d_652_3)">
<ellipse cx="59" cy="52" rx="44" ry="42" fill="#EA5A0D"/>
<path d="M59 10.6719C82.9591 10.6719 102.328 29.2044 102.328 52C102.328 74.7956 82.9591 93.3281 59 93.3281C35.0409 93.3281 15.6719 74.7956 15.6719 52C15.6719 29.2044 35.0409 10.6719 59 10.6719Z" stroke="white" stroke-width="1.34445"/>
</g>
<path d="M49.4844 62H33.3067V59.1378L41.8622 50.9556C42.8163 50.043 43.4593 49.2652 43.7911 48.6222C44.123 47.9585 44.2889 47.2948 44.2889 46.6311C44.2889 45.677 43.957 44.9304 43.2933 44.3911C42.6504 43.8519 41.6963 43.5822 40.4311 43.5822C38.3363 43.5822 36.7185 44.3393 35.5778 45.8533L32.4044 43.7378C33.2548 42.5348 34.4059 41.5911 35.8578 40.9067C37.3096 40.2222 38.9689 39.88 40.8356 39.88C42.4119 39.88 43.7911 40.1393 44.9733 40.6578C46.1556 41.1556 47.0681 41.8815 47.7111 42.8356C48.3748 43.7896 48.7067 44.9096 48.7067 46.1956C48.7067 47.357 48.4578 48.4563 47.96 49.4933C47.4622 50.5304 46.5081 51.7126 45.0978 53.04L39.4978 58.3911H49.4844V62ZM60.5691 62.3422C58.8062 62.3422 57.2299 61.8963 55.8402 61.0044C54.4506 60.1126 53.3617 58.8267 52.5736 57.1467C51.7854 55.4459 51.3913 53.4341 51.3913 51.1111C51.3913 48.7881 51.7854 46.7867 52.5736 45.1067C53.3617 43.4059 54.4506 42.1096 55.8402 41.2178C57.2299 40.3259 58.8062 39.88 60.5691 39.88C62.3528 39.88 63.9395 40.3259 65.3291 41.2178C66.7187 42.1096 67.7973 43.4059 68.5647 45.1067C69.3528 46.7867 69.7469 48.7881 69.7469 51.1111C69.7469 53.4341 69.3528 55.4459 68.5647 57.1467C67.7973 58.8267 66.7187 60.1126 65.3291 61.0044C63.9395 61.8963 62.3528 62.3422 60.5691 62.3422ZM60.5691 58.6089C62.0417 58.6089 63.2032 57.9867 64.0536 56.7422C64.9247 55.477 65.3602 53.6 65.3602 51.1111C65.3602 48.6222 64.9247 46.7556 64.0536 45.5111C63.2032 44.2459 62.0417 43.6133 60.5691 43.6133C59.1173 43.6133 57.9662 44.2459 57.1158 45.5111C56.2654 46.7556 55.8402 48.6222 55.8402 51.1111C55.8402 53.6 56.2654 55.477 57.1158 56.7422C57.9662 57.9867 59.1173 58.6089 60.5691 58.6089ZM74.0449 56.5778C73.393 56.5778 72.8123 56.4237 72.3027 56.1156C71.8049 55.8074 71.4138 55.3748 71.1293 54.8178C70.8449 54.2489 70.7027 53.5911 70.7027 52.8444C70.7027 52.0978 70.8449 51.4459 71.1293 50.8889C71.4138 50.32 71.8049 49.8815 72.3027 49.5733C72.8123 49.2652 73.393 49.1111 74.0449 49.1111C74.6849 49.1111 75.2538 49.2652 75.7516 49.5733C76.2612 49.8815 76.6582 50.32 76.9427 50.8889C77.2271 51.4459 77.3693 52.0978 77.3693 52.8444C77.3693 53.5911 77.2271 54.2489 76.9427 54.8178C76.6582 55.3748 76.2612 55.8074 75.7516 56.1156C75.2538 56.4237 74.6849 56.5778 74.0449 56.5778ZM84.2316 49.2533L75.3071 62.3022H72.6938L81.6182 49.2533H84.2316ZM74.0449 54.6578C74.4005 54.6578 74.679 54.5096 74.8805 54.2133C75.0819 53.9052 75.1827 53.4489 75.1827 52.8444C75.1827 52.24 75.0819 51.7896 74.8805 51.4933C74.679 51.1852 74.4005 51.0311 74.0449 51.0311C73.7012 51.0311 73.4227 51.1852 73.2093 51.4933C73.0079 51.8015 72.9071 52.2519 72.9071 52.8444C72.9071 53.437 73.0079 53.8874 73.2093 54.1956C73.4227 54.5037 73.7012 54.6578 74.0449 54.6578ZM82.8805 62.4267C82.2405 62.4267 81.6656 62.2726 81.156 61.9644C80.6582 61.6563 80.2671 61.2237 79.9827 60.6667C79.6982 60.0978 79.556 59.4459 79.556 58.7111C79.556 57.9763 79.6982 57.3244 79.9827 56.7556C80.2671 56.1867 80.6582 55.7481 81.156 55.44C81.6656 55.1319 82.2405 54.9778 82.8805 54.9778C83.5205 54.9778 84.0953 55.1319 84.6049 55.44C85.1145 55.7481 85.5116 56.1867 85.796 56.7556C86.0805 57.3244 86.2227 57.9763 86.2227 58.7111C86.2227 59.4459 86.0805 60.0978 85.796 60.6667C85.5116 61.2237 85.1145 61.6563 84.6049 61.9644C84.0953 62.2726 83.5205 62.4267 82.8805 62.4267ZM82.8805 60.5244C83.236 60.5244 83.5145 60.3704 83.716 60.0622C83.9175 59.7541 84.0182 59.3037 84.0182 58.7111C84.0182 58.1067 83.9175 57.6563 83.716 57.36C83.5145 57.0519 83.236 56.8978 82.8805 56.8978C82.5249 56.8978 82.2464 57.0519 82.0449 57.36C81.8434 57.6563 81.7427 58.1067 81.7427 58.7111C81.7427 59.3037 81.8434 59.7541 82.0449 60.0622C82.2582 60.3704 82.5367 60.5244 82.8805 60.5244Z" fill="white"/>
<defs>
<filter id="filter0_d_652_3" x="0.588823" y="0.966639" width="112.789" height="108.789" filterUnits="userSpaceOnUse" color-interpolation-filters="sRGB">
<feFlood flood-opacity="0" result="BackgroundImageFix"/>
<feColorMatrix in="SourceAlpha" type="matrix" values="0 0 0 0 0 0 0 0 0 0 0 0 0 0 0 0 0 0 127 0" result="hardAlpha"/>
<feOffset dx="-2.01668" dy="3.36113"/>
<feGaussianBlur stdDeviation="3.69725"/>
<feComposite in2="hardAlpha" operator="out"/>
<feColorMatrix type="matrix" values="0 0 0 0 0 0 0 0 0 0 0 0 0 0 0 0 0 0 0.25 0"/>
<feBlend mode="normal" in2="BackgroundImageFix" result="effect1_dropShadow_652_3"/>
<feBlend mode="normal" in="SourceGraphic" in2="effect1_dropShadow_652_3" result="shape"/>
</filter>
<filter id="filter1_d_652_3" x="14.3278" y="10" width="93.3778" height="89.3778" filterUnits="userSpaceOnUse" color-interpolation-filters="sRGB">
<feFlood flood-opacity="0" result="BackgroundImageFix"/>
<feColorMatrix in="SourceAlpha" type="matrix" values="0 0 0 0 0 0 0 0 0 0 0 0 0 0 0 0 0 0 127 0" result="hardAlpha"/>
<feOffset dx="2.01668" dy="2.68891"/>
<feGaussianBlur stdDeviation="1.34445"/>
<feComposite in2="hardAlpha" operator="out"/>
<feColorMatrix type="matrix" values="0 0 0 0 0 0 0 0 0 0 0 0 0 0 0 0 0 0 0.25 0"/>
<feBlend mode="normal" in2="BackgroundImageFix" result="effect1_dropShadow_652_3"/>
<feBlend mode="normal" in="SourceGraphic" in2="effect1_dropShadow_652_3" result="shape"/>
</filter>
</defs>
</svg>
