<svg width="22" height="23" viewBox="0 0 22 23" fill="none" xmlns="http://www.w3.org/2000/svg">
<path d="M21.4228 4.96858L16.4955 0.833984L15.1138 2.47283L20.041 6.60742L21.4228 4.96858ZM6.2983 2.47283L4.92724 0.833984L0 4.95787L1.38177 6.59671L6.2983 2.47283ZM10.7114 3.12622C5.38783 3.12622 1.07114 7.44291 1.07114 12.7665C1.07114 18.09 5.37712 22.4067 10.7114 22.4067C16.0349 22.4067 20.3516 18.09 20.3516 12.7665C20.3516 7.44291 16.0349 3.12622 10.7114 3.12622ZM10.7114 20.2644C6.56608 20.2644 3.21342 16.9118 3.21342 12.7665C3.21342 8.62116 6.56608 5.2685 10.7114 5.2685C14.8567 5.2685 18.2094 8.62116 18.2094 12.7665C18.2094 16.9118 14.8567 20.2644 10.7114 20.2644ZM9.14752 14.4053L6.866 12.1238L5.73059 13.2592L9.13681 16.6654L15.5636 10.2386L14.4282 9.10318L9.14752 14.4053Z" fill="white"/>
</svg>
